<svg width="42" height="42" viewBox="0 0 42 42" fill="none" xmlns="http://www.w3.org/2000/svg">
<path d="M18.0833 30.5833L32.7708 15.8958L29.8542 12.9792L18.0833 24.75L12.1458 18.8125L9.22916 21.7292L18.0833 30.5833ZM21 41.8333C18.1181 41.8333 15.4097 41.2865 12.875 40.1927C10.3403 39.099 8.13541 37.6146 6.26041 35.7396C4.38541 33.8646 2.90104 31.6597 1.80729 29.125C0.713539 26.5903 0.166664 23.882 0.166664 21C0.166664 18.1181 0.713539 15.4097 1.80729 12.875C2.90104 10.3403 4.38541 8.13542 6.26041 6.26042C8.13541 4.38542 10.3403 2.90105 12.875 1.8073C15.4097 0.713547 18.1181 0.166672 21 0.166672C23.8819 0.166672 26.5903 0.713547 29.125 1.8073C31.6597 2.90105 33.8646 4.38542 35.7396 6.26042C37.6146 8.13542 39.099 10.3403 40.1927 12.875C41.2865 15.4097 41.8333 18.1181 41.8333 21C41.8333 23.882 41.2865 26.5903 40.1927 29.125C39.099 31.6597 37.6146 33.8646 35.7396 35.7396C33.8646 37.6146 31.6597 39.099 29.125 40.1927C26.5903 41.2865 23.8819 41.8333 21 41.8333ZM21 37.6667C25.6528 37.6667 29.5937 36.0521 32.8229 32.8229C36.0521 29.5938 37.6667 25.6528 37.6667 21C37.6667 16.3472 36.0521 12.4063 32.8229 9.17709C29.5937 5.94792 25.6528 4.33334 21 4.33334C16.3472 4.33334 12.4062 5.94792 9.17708 9.17709C5.94791 12.4063 4.33333 16.3472 4.33333 21C4.33333 25.6528 5.94791 29.5938 9.17708 32.8229C12.4062 36.0521 16.3472 37.6667 21 37.6667Z" fill="#22B33D"/>
</svg>
