<svg width="42" height="42" viewBox="0 0 42 42" fill="none" xmlns="http://www.w3.org/2000/svg">
<path d="M13.5 31.4167L21 23.9167L28.5 31.4167L31.4167 28.5L23.9167 21L31.4167 13.5L28.5 10.5833L21 18.0833L13.5 10.5833L10.5833 13.5L18.0833 21L10.5833 28.5L13.5 31.4167ZM21 41.8333C18.1181 41.8333 15.4097 41.2865 12.875 40.1927C10.3403 39.099 8.13542 37.6146 6.26042 35.7396C4.38542 33.8646 2.90105 31.6597 1.8073 29.125C0.713547 26.5903 0.166672 23.882 0.166672 21C0.166672 18.1181 0.713547 15.4097 1.8073 12.875C2.90105 10.3403 4.38542 8.13542 6.26042 6.26042C8.13542 4.38542 10.3403 2.90105 12.875 1.8073C15.4097 0.713547 18.1181 0.166672 21 0.166672C23.882 0.166672 26.5903 0.713547 29.125 1.8073C31.6597 2.90105 33.8646 4.38542 35.7396 6.26042C37.6146 8.13542 39.099 10.3403 40.1927 12.875C41.2865 15.4097 41.8333 18.1181 41.8333 21C41.8333 23.882 41.2865 26.5903 40.1927 29.125C39.099 31.6597 37.6146 33.8646 35.7396 35.7396C33.8646 37.6146 31.6597 39.099 29.125 40.1927C26.5903 41.2865 23.882 41.8333 21 41.8333ZM21 37.6667C25.6528 37.6667 29.5938 36.0521 32.8229 32.8229C36.0521 29.5938 37.6667 25.6528 37.6667 21C37.6667 16.3472 36.0521 12.4063 32.8229 9.17709C29.5938 5.94792 25.6528 4.33334 21 4.33334C16.3472 4.33334 12.4063 5.94792 9.17709 9.17709C5.94792 12.4063 4.33334 16.3472 4.33334 21C4.33334 25.6528 5.94792 29.5938 9.17709 32.8229C12.4063 36.0521 16.3472 37.6667 21 37.6667Z" fill="#BC1F1B"/>
</svg>
