<svg width="10" height="10" viewBox="0 0 10 10" fill="none" xmlns="http://www.w3.org/2000/svg">
<path d="M0.916667 9.17812C0.664583 9.17812 0.448785 9.08837 0.269271 8.90885C0.0897569 8.72934 0 8.51354 0 8.26146V1.84479C0 1.59271 0.0897569 1.37691 0.269271 1.1974C0.448785 1.01788 0.664583 0.928125 0.916667 0.928125H5.00729L4.09063 1.84479H0.916667V8.26146H7.33333V5.07604L8.25 4.15937V8.26146C8.25 8.51354 8.16024 8.72934 7.98073 8.90885C7.80122 9.08837 7.58542 9.17812 7.33333 9.17812H0.916667ZM2.75 6.42812V4.48021L6.95521 0.275C7.04688 0.183333 7.15 0.114583 7.26458 0.06875C7.37917 0.0229167 7.49375 0 7.60833 0C7.73056 0 7.84705 0.0229167 7.95781 0.06875C8.06858 0.114583 8.16979 0.183333 8.26146 0.275L8.90312 0.928125C8.98715 1.01979 9.05208 1.12101 9.09792 1.23177C9.14375 1.34253 9.16667 1.45521 9.16667 1.56979C9.16667 1.68437 9.14566 1.79705 9.10365 1.90781C9.06163 2.01858 8.99479 2.11979 8.90312 2.21146L4.69792 6.42812H2.75ZM3.66667 5.51146H4.30833L6.96667 2.85312L6.64583 2.53229L6.31354 2.21146L3.66667 4.85833V5.51146Z" fill="#E3E3E3"/>
</svg>
