<svg width="16" height="14" viewBox="0 0 16 14" fill="none" xmlns="http://www.w3.org/2000/svg">
<path d="M10.9818 7.42424L9.92727 6.39899C10.0364 5.84512 9.87273 5.3266 9.43636 4.84343C9 4.36027 8.43636 4.17172 7.74545 4.27778L6.69091 3.25253C6.89697 3.15825 7.10606 3.08754 7.31818 3.0404C7.5303 2.99327 7.75758 2.9697 8 2.9697C8.90909 2.9697 9.68182 3.27904 10.3182 3.89773C10.9545 4.51641 11.2727 5.26768 11.2727 6.15152C11.2727 6.38721 11.2485 6.60816 11.2 6.81439C11.1515 7.02062 11.0788 7.22391 10.9818 7.42424ZM13.3091 9.65152L12.2545 8.66162C12.7152 8.31987 13.1242 7.94571 13.4818 7.53914C13.8394 7.13258 14.1455 6.67003 14.4 6.15152C13.7939 4.96128 12.9242 4.01557 11.7909 3.31439C10.6576 2.61322 9.39394 2.26263 8 2.26263C7.64848 2.26263 7.30303 2.2862 6.96364 2.33333C6.62424 2.38047 6.29091 2.45118 5.96364 2.54545L4.83636 1.44949C5.33333 1.24916 5.84242 1.09891 6.36364 0.998737C6.88485 0.898569 7.4303 0.848485 8 0.848485C9.8303 0.848485 11.4606 1.34049 12.8909 2.32449C14.3212 3.3085 15.3576 4.58418 16 6.15152C15.7212 6.8468 15.3545 7.492 14.9 8.08712C14.4455 8.68224 13.9152 9.2037 13.3091 9.65152ZM13.6727 14L10.6182 11.0657C10.1939 11.1953 9.76667 11.2925 9.33636 11.3573C8.90606 11.4221 8.46061 11.4545 8 11.4545C6.1697 11.4545 4.53939 10.9625 3.10909 9.97853C1.67879 8.99453 0.642424 7.71885 0 6.15152C0.254545 5.52694 0.575758 4.94655 0.963636 4.41035C1.35152 3.87416 1.79394 3.39394 2.29091 2.9697L0.290909 0.989899L1.30909 0L14.6909 13.0101L13.6727 14ZM3.30909 3.9596C2.95758 4.26599 2.63636 4.60185 2.34545 4.96717C2.05455 5.33249 1.80606 5.72727 1.6 6.15152C2.20606 7.34175 3.07576 8.28746 4.20909 8.98864C5.34242 9.68981 6.60606 10.0404 8 10.0404C8.24242 10.0404 8.47879 10.0257 8.70909 9.99621C8.93939 9.96675 9.17576 9.93434 9.41818 9.89899L8.76364 9.22727C8.6303 9.26263 8.50303 9.28914 8.38182 9.30682C8.26061 9.32449 8.13333 9.33333 8 9.33333C7.09091 9.33333 6.31818 9.02399 5.68182 8.4053C5.04545 7.78662 4.72727 7.03535 4.72727 6.15152C4.72727 6.02189 4.73636 5.89815 4.75455 5.7803C4.77273 5.66246 4.8 5.53872 4.83636 5.40909L3.30909 3.9596Z" fill="#575757"/>
</svg>
