<svg width="11" height="11" viewBox="0 0 11 11" fill="none" xmlns="http://www.w3.org/2000/svg">
<path d="M5.5 5.5C4.8125 5.5 4.22396 5.25521 3.73438 4.76562C3.24479 4.27604 3 3.6875 3 3C3 2.3125 3.24479 1.72396 3.73438 1.23438C4.22396 0.744792 4.8125 0.5 5.5 0.5C6.1875 0.5 6.77604 0.744792 7.26562 1.23438C7.75521 1.72396 8 2.3125 8 3C8 3.6875 7.75521 4.27604 7.26562 4.76562C6.77604 5.25521 6.1875 5.5 5.5 5.5ZM0.5 10.5V8.75C0.5 8.39583 0.591146 8.07031 0.773438 7.77344C0.955729 7.47656 1.19792 7.25 1.5 7.09375C2.14583 6.77083 2.80208 6.52865 3.46875 6.36719C4.13542 6.20573 4.8125 6.125 5.5 6.125C6.1875 6.125 6.86458 6.20573 7.53125 6.36719C8.19792 6.52865 8.85417 6.77083 9.5 7.09375C9.80208 7.25 10.0443 7.47656 10.2266 7.77344C10.4089 8.07031 10.5 8.39583 10.5 8.75V10.5H0.5ZM1.75 9.25H9.25V8.75C9.25 8.63542 9.22135 8.53125 9.16406 8.4375C9.10677 8.34375 9.03125 8.27083 8.9375 8.21875C8.375 7.9375 7.80729 7.72656 7.23438 7.58594C6.66146 7.44531 6.08333 7.375 5.5 7.375C4.91667 7.375 4.33854 7.44531 3.76562 7.58594C3.19271 7.72656 2.625 7.9375 2.0625 8.21875C1.96875 8.27083 1.89323 8.34375 1.83594 8.4375C1.77865 8.53125 1.75 8.63542 1.75 8.75V9.25ZM5.5 4.25C5.84375 4.25 6.13802 4.1276 6.38281 3.88281C6.6276 3.63802 6.75 3.34375 6.75 3C6.75 2.65625 6.6276 2.36198 6.38281 2.11719C6.13802 1.8724 5.84375 1.75 5.5 1.75C5.15625 1.75 4.86198 1.8724 4.61719 2.11719C4.3724 2.36198 4.25 2.65625 4.25 3C4.25 3.34375 4.3724 3.63802 4.61719 3.88281C4.86198 4.1276 5.15625 4.25 5.5 4.25Z" fill="#4C4C4C"/>
</svg>
